{
  "accessors": [
    {
      "bufferView": 2,
      "componentType": 5126,
      "count": 65532,
      "max": [
        185.8874969482422,
        30.84280014038086,
        91.06696319580078
      ],
      "min": [
        -44.561180114746094,
        -30.84280014038086,
        -44.5611686706543
      ],
      "type": "VEC3"
    },
    {
      "bufferView": 2,
      "byteOffset": 786384,
      "componentType": 5126,
      "count": 65532,
      "max": [
        1.0,
        1.0,
        1.0
      ],
      "min": [
        -1.0,
        -1.0,
        -1.0
      ],
      "type": "VEC3"
    },
    {
      "bufferView": 3,
      "componentType": 5126,
      "count": 65532,
      "max": [
        1.0,
        1.0,
        1.0,
        1.0
      ],
      "min": [
        -1.0,
        -1.0,
        -1.0,
        -1.0
      ],
      "type": "VEC4"
    },
    {
      "bufferView": 1,
      "componentType": 5126,
      "count": 65532,
      "max": [
        0.9980466961860657,
        0.9975494146347046
      ],
      "min": [
        0.001953125,
        0.001953125
      ],
      "type": "VEC2"
    },
    {
      "bufferView": 0,
      "componentType": 5125,
      "count": 203274,
      "type": "SCALAR"
    },
    {
      "bufferView": 2,
      "byteOffset": 1572768,
      "componentType": 5126,
      "count": 9450,
      "max": [
        150.55580139160156,
        4.3235602378845215,
        8.992995262145996
      ],
      "min": [
        124.27349853515625,
        2.1359050273895264,
        -16.306949615478516
      ],
      "type": "VEC3"
    },
    {
      "bufferView": 2,
      "byteOffset": 1686168,
      "componentType": 5126,
      "count": 9450,
      "max": [
        0.996350884437561,
        0.9999693632125854,
        0.9339073300361633
      ],
      "min": [
        -0.9963493347167969,
        -0.9999693632125854,
        -0.9338628649711609
      ],
      "type": "VEC3"
    },
    {
      "bufferView": 3,
      "byteOffset": 1048512,
      "componentType": 5126,
      "count": 9450,
      "max": [
        0.999086856842041,
        0.9964210987091064,
        0.9997588992118835,
        1.0
      ],
      "min": [
        -0.9982212781906128,
        -0.9976270794868469,
        -0.9997583627700806,
        1.0
      ],
      "type": "VEC4"
    },
    {
      "bufferView": 1,
      "byteOffset": 524256,
      "componentType": 5126,
      "count": 9450,
      "max": [
        0.998046875,
        0.9972758889198303
      ],
      "min": [
        0.001953125,
        0.001953125
      ],
      "type": "VEC2"
    },
    {
      "bufferView": 0,
      "byteOffset": 813096,
      "componentType": 5125,
      "count": 24633,
      "type": "SCALAR"
    }
  ],
  "asset": {
    "extras": {
      "author": "Saushkin (https://sketchfab.com/Saushkin)",
      "license": "CC-BY-4.0 (http://creativecommons.org/licenses/by/4.0/)",
      "source": "https://sketchfab.com/3d-models/mtb-mongoose-tyax-d5c7ab157aa84eb08e2deaee6165e764",
      "title": "MTB Mongoose Tyax"
    },
    "generator": "Sketchfab-15.30.0",
    "version": "2.0"
  },
  "bufferViews": [
    {
      "buffer": 0,
      "byteLength": 911628,
      "name": "floatBufferViews",
      "target": 34963
    },
    {
      "buffer": 0,
      "byteLength": 599856,
      "byteOffset": 911628,
      "byteStride": 8,
      "name": "floatBufferViews",
      "target": 34962
    },
    {
      "buffer": 0,
      "byteLength": 1799568,
      "byteOffset": 1511484,
      "byteStride": 12,
      "name": "floatBufferViews",
      "target": 34962
    },
    {
      "buffer": 0,
      "byteLength": 1199712,
      "byteOffset": 3311052,
      "byteStride": 16,
      "name": "floatBufferViews",
      "target": 34962
    }
  ],
  "buffers": [
    {
      "byteLength": 4510764,
      "uri": "scene.bin"
    }
  ],
  "images": [
    {
      "uri": "textures/Bike_Mongoose_Tyax_baseColor.png"
    },
    {
      "uri": "textures/Bike_Mongoose_Tyax_metallicRoughness.png"
    },
    {
      "uri": "textures/Bike_Mongoose_Tyax_normal.png"
    }
  ],
  "materials": [
    {
      "doubleSided": true,
      "name": "Bike_Mongoose_Tyax",
      "normalTexture": {
        "index": 2
      },
      "pbrMetallicRoughness": {
        "baseColorTexture": {
          "index": 0
        },
        "metallicRoughnessTexture": {
          "index": 1
        }
      }
    }
  ],
  "meshes": [
    {
      "name": "MongooseTyax_2_Bike_Mongoose_Tyax_0",
      "primitives": [
        {
          "attributes": {
            "NORMAL": 1,
            "POSITION": 0,
            "TANGENT": 2,
            "TEXCOORD_0": 3
          },
          "indices": 4,
          "material": 0,
          "mode": 4
        }
      ]
    },
    {
      "name": "MongooseTyax_2_Bike_Mongoose_Tyax_0",
      "primitives": [
        {
          "attributes": {
            "NORMAL": 6,
            "POSITION": 5,
            "TANGENT": 7,
            "TEXCOORD_0": 8
          },
          "indices": 9,
          "material": 0,
          "mode": 4
        }
      ]
    }
  ],
  "nodes": [
    {
      "children": [
        1
      ],
      "matrix": [
        1.0,
        0.0,
        0.0,
        0.0,
        0.0,
        2.220446049250313e-16,
        -1.0,
        0.0,
        0.0,
        1.0,
        2.220446049250313e-16,
        0.0,
        0.0,
        0.0,
        0.0,
        1.0
      ],
      "name": "Sketchfab_model"
    },
    {
      "children": [
        2
      ],
      "matrix": [
        1.0,
        0.0,
        0.0,
        0.0,
        0.0,
        0.0,
        1.0,
        0.0,
        0.0,
        -1.0,
        0.0,
        0.0,
        0.0,
        0.0,
        0.0,
        1.0
      ],
      "name": "745dddb9107a4e4598f4b9cd52619828.fbx"
    },
    {
      "children": [
        3
      ],
      "name": "RootNode"
    },
    {
      "children": [
        4,
        5
      ],
      "matrix": [
        1.0,
        0.0,
        0.0,
        0.0,
        0.0,
        2.220446049250313e-16,
        -1.0,
        0.0,
        0.0,
        1.0,
        2.220446049250313e-16,
        0.0,
        0.0,
        0.0,
        0.0,
        1.0
      ],
      "name": "MongooseTyax_2"
    },
    {
      "mesh": 0,
      "name": "MongooseTyax_2_Bike_Mongoose_Tyax_0"
    },
    {
      "mesh": 1,
      "name": "MongooseTyax_2_Bike_Mongoose_Tyax_0"
    }
  ],
  "samplers": [
    {
      "magFilter": 9729,
      "minFilter": 9987,
      "wrapS": 10497,
      "wrapT": 10497
    }
  ],
  "scene": 0,
  "scenes": [
    {
      "name": "Sketchfab_Scene",
      "nodes": [
        0
      ]
    }
  ],
  "textures": [
    {
      "sampler": 0,
      "source": 0
    },
    {
      "sampler": 0,
      "source": 1
    },
    {
      "sampler": 0,
      "source": 2
    }
  ]
}
